<svg width="119" height="39" viewBox="0 0 119 39" fill="none" xmlns="http://www.w3.org/2000/svg">
<path d="M19.6352 38.4763C30.4698 38.4763 39.2529 30.0164 39.2529 19.5807C39.2529 9.14491 30.4698 0.685059 19.6352 0.685059C8.80062 0.685059 0.0174561 9.14491 0.0174561 19.5807C0.0174561 30.0164 8.80062 38.4763 19.6352 38.4763Z" fill="white"/>
<path d="M8.82854 10.876C10.0304 9.78972 11.4958 9.01088 13.0907 8.61071C14.6857 8.21055 16.3594 8.20183 17.9587 8.58534C17.1582 5.09902 12.3901 4.82525 9.97706 6.39522C7.27977 8.17749 3.66018 12.8315 2.9931 17.3514C5.06393 12.9488 9.3738 14.1165 11.7579 13.7254C16.8334 12.8874 18.0167 10.7811 18.0457 9.35636C13.0514 7.61878 8.82854 10.876 8.82854 10.876Z" fill="#76C043"/>
<path d="M6.34013 24.2796C5.96669 22.733 6.0003 21.1211 6.43792 19.5902C6.87553 18.0593 7.70329 16.6579 8.84601 15.5134C5.31342 14.4407 2.68574 18.279 2.88876 21.1005C3.11498 24.2237 5.51064 29.5817 9.26945 32.4032C6.36914 28.4922 9.54788 25.464 10.389 23.2795C12.1756 18.6199 10.8704 16.575 9.60589 15.8431C5.52225 19.1227 6.34013 24.2796 6.34013 24.2796Z" fill="#76C043"/>
<path d="M17.1467 33.0568C15.5685 32.5969 14.1352 31.7632 12.978 30.632C11.8207 29.5008 10.9765 28.1081 10.5224 26.5814C7.78449 28.995 9.94233 33.1071 12.5468 34.3362C15.4471 35.7106 21.4856 36.3867 25.8883 34.6826C20.8939 35.1575 19.7918 30.984 18.243 29.1905C14.9541 25.369 12.4424 25.436 11.1663 26.1233C12.1118 31.1572 17.1467 33.0568 17.1467 33.0568Z" fill="#76C043"/>
<path d="M30.4418 28.4308C29.2393 29.5162 27.7737 30.294 26.1788 30.6931C24.5838 31.0923 22.9104 31.1001 21.3116 30.7159C22.112 34.2078 26.8744 34.4759 29.2932 32.906C31.9905 31.1573 35.6101 26.4754 36.254 21.9556C34.1832 26.3525 29.8733 25.1848 27.4892 25.5815C22.4311 26.4195 21.2536 28.5258 21.2188 29.9673C26.2189 31.688 30.4418 28.4308 30.4418 28.4308Z" fill="#76C043"/>
<path d="M32.9302 15.0274C33.3021 16.5732 33.2677 18.1839 32.8301 19.7137C32.3926 21.2434 31.5656 22.6438 30.4243 23.788C33.9569 24.8664 36.5846 21.028 36.3816 18.2344C36.1553 15.1112 33.7597 9.74756 30.0009 6.93164C32.9012 10.8426 29.7224 13.8653 28.8813 16.0554C27.0947 20.7095 28.3941 22.76 29.6644 23.4919C33.7481 20.1787 32.9302 15.0274 32.9302 15.0274Z" fill="#76C043"/>
<path d="M22.1236 6.25021C23.7012 6.70956 25.134 7.54238 26.2912 8.67257C27.4484 9.80275 28.293 11.1943 28.748 12.7199C31.4801 10.3119 29.328 6.19993 26.7235 4.96521C23.8232 3.59641 17.7848 2.9148 13.3821 4.61882C18.3764 4.14952 19.4785 8.32297 21.0273 10.1164C24.2931 13.9323 26.8047 13.8652 28.0983 13.206C27.1934 8.14419 22.1236 6.25021 22.1236 6.25021Z" fill="#76C043"/>
<path d="M19.6526 38.5541C15.769 38.5585 11.9714 37.4533 8.74016 35.3782C5.50895 33.3032 2.9894 30.3516 1.50032 26.8969C0.0112287 23.4422 -0.380471 19.6397 0.374779 15.9706C1.13003 12.3014 2.99829 8.93047 5.74316 6.28431C8.48802 3.63814 11.9861 1.83568 15.7949 1.10497C19.6036 0.374273 23.5518 0.748178 27.1398 2.17938C30.7279 3.61058 33.7945 6.03475 35.9518 9.14516C38.109 12.2556 39.2598 15.9124 39.2587 19.653C39.251 24.6607 37.1835 29.4615 33.5088 33.004C29.8341 36.5466 24.8517 38.5423 19.6526 38.5541ZM19.6526 2.12631C16.0526 2.12189 12.5322 3.14606 9.53676 5.06922C6.54129 6.99239 4.20538 9.72814 2.82457 12.9303C1.44375 16.1325 1.08009 19.6572 1.77958 23.0586C2.47908 26.4599 4.2103 29.5849 6.75422 32.0383C9.29813 34.4917 12.5404 36.1632 16.0708 36.8413C19.6013 37.5193 23.2612 37.1736 26.5875 35.8477C29.9139 34.5218 32.7572 32.2754 34.7576 29.3926C36.7581 26.5099 37.8259 23.1204 37.8259 19.653C37.8214 15.0099 35.9059 10.5578 32.4994 7.27254C29.0929 3.98725 24.4732 2.13666 19.6526 2.12631Z" fill="#76C043"/>
<path d="M25.8244 17.3346C25.4199 18.0665 24.7729 18.6469 23.9864 18.9837C23.1998 19.3205 22.3189 19.3942 21.4839 19.1931C20.6488 18.992 19.9076 18.5277 19.3781 17.8741C18.8486 17.2204 18.5614 16.415 18.562 15.5859C18.5605 14.7398 18.8616 13.9191 19.4147 13.2617C18.0095 13.3033 16.6544 13.7745 15.5456 14.607C14.4368 15.4395 13.6317 16.5902 13.2469 17.8925C12.8621 19.1949 12.9174 20.5815 13.4049 21.8516C13.8925 23.1217 14.7869 24.2094 15.9588 24.9575C17.1307 25.7055 18.5193 26.075 19.9237 26.0126C21.3281 25.9502 22.6754 25.459 23.7708 24.6101C24.8662 23.7613 25.6527 22.5988 26.0167 21.2908C26.3807 19.9829 26.3032 18.5973 25.7954 17.3346H25.8244Z" fill="url(#paint0_linear_41_18)"/>
<path d="M22.2396 22.9161C22.2396 23.1681 22.1621 23.4144 22.0168 23.6239C21.8714 23.8334 21.6649 23.9967 21.4232 24.0931C21.1815 24.1895 20.9156 24.2148 20.6591 24.1656C20.4025 24.1165 20.1669 23.9951 19.9819 23.8169C19.7969 23.6388 19.671 23.4118 19.62 23.1646C19.5689 22.9175 19.5951 22.6613 19.6952 22.4286C19.7953 22.1958 19.9648 21.9968 20.1823 21.8568C20.3998 21.7168 20.6555 21.6421 20.9171 21.6421C21.2679 21.6421 21.6042 21.7763 21.8523 22.0152C22.1003 22.2542 22.2396 22.5782 22.2396 22.9161Z" fill="white"/>
<path d="M47.4086 26.9275H48.6267V30.196H49.4214V26.9275H50.6453V26.2402H47.4086V26.9275Z" fill="#898989"/>
<path d="M54.3925 28.4919H56.0805V27.8047H54.3925V26.9275H56.1791V26.2402H53.5978V30.196H56.2545V29.5088H54.3925V28.4919Z" fill="#898989"/>
<path d="M62.2408 29.2294C61.9574 29.4471 61.6056 29.5653 61.2431 29.5646C61.0783 29.5718 60.914 29.5439 60.7616 29.4831C60.6092 29.4223 60.4726 29.33 60.3614 29.2126C60.1181 28.9448 59.9932 28.5959 60.0134 28.2405C60.0103 27.9939 60.0638 27.7497 60.17 27.5254C60.261 27.3266 60.4101 27.1577 60.5992 27.0393C60.7891 26.9161 61.0143 26.8535 61.2431 26.8605C61.5585 26.856 61.8665 26.9523 62.119 27.1343L62.2466 27.2237L62.5947 26.665L62.496 26.5867C62.2011 26.3752 61.8545 26.2404 61.4898 26.1954C61.125 26.1504 60.7544 26.1967 60.4136 26.3297C60.1715 26.4255 59.9524 26.5682 59.7698 26.7488C59.5865 26.9407 59.4428 27.1644 59.3463 27.408C59.2451 27.6785 59.194 27.9641 59.1955 28.2517C59.1934 28.5457 59.2485 28.8375 59.3579 29.1121C59.4576 29.3542 59.6122 29.5718 59.8104 29.749C59.9972 29.9135 60.216 30.0408 60.4542 30.1233C60.6986 30.2133 60.9583 30.2588 61.2199 30.2574C61.707 30.2655 62.1835 30.1203 62.5773 29.844L62.6701 29.7769L62.3858 29.1288L62.2408 29.2294Z" fill="#898989"/>
<path d="M68.3314 27.827H66.5913V26.2402H65.7966V30.196H66.5913V28.5142H68.3314V30.196H69.1203V26.2402H68.3314V27.827Z" fill="#898989"/>
<path d="M75.2284 28.9165L73.3258 26.2402H72.5717V30.196H73.3316V27.5365L75.24 30.196H75.9999V26.2402H75.2284V28.9165Z" fill="#898989"/>
<path d="M81.2146 26.1732C80.837 26.1657 80.4643 26.2564 80.1357 26.4358C79.8332 26.605 79.5906 26.8581 79.4397 27.1621C79.2769 27.4898 79.1954 27.8494 79.2018 28.2125C79.1733 28.7551 79.367 29.2867 79.7413 29.6931C79.9308 29.8811 80.1597 30.0281 80.4127 30.1244C80.6657 30.2207 80.9371 30.2641 81.2088 30.2518C81.4789 30.2643 81.7486 30.221 81.9997 30.1246C82.2509 30.0282 82.4777 29.8811 82.6648 29.6931C83.0121 29.2743 83.2013 28.7542 83.2013 28.2181C83.2013 27.6821 83.0121 27.1619 82.6648 26.7431C82.4803 26.5527 82.2551 26.4031 82.0047 26.3047C81.7544 26.2063 81.4848 26.1614 81.2146 26.1732ZM82.3748 28.2125C82.3991 28.5714 82.2924 28.9271 82.0731 29.2182C81.9688 29.3373 81.8365 29.4309 81.6873 29.4911C81.538 29.5513 81.376 29.5765 81.2146 29.5646C81.0525 29.5761 80.8898 29.5507 80.7397 29.4905C80.5895 29.4304 80.4562 29.3371 80.3504 29.2182C80.1441 28.9225 80.034 28.5743 80.034 28.2181C80.034 27.8619 80.1441 27.5137 80.3504 27.218C80.4553 27.0974 80.5882 27.0023 80.7383 26.9402C80.8884 26.8781 81.0516 26.8508 81.2146 26.8604C81.3755 26.8505 81.5365 26.8772 81.6846 26.9384C81.8328 26.9995 81.9639 27.0934 82.0673 27.2124C82.2815 27.5036 82.3858 27.8564 82.3632 28.2125H82.3748Z" fill="#898989"/>
<path d="M87.1951 26.2402H86.4004V30.196H88.9701V29.5088H87.1951V26.2402Z" fill="#898989"/>
<path d="M93.7556 26.1734C93.3798 26.1657 93.009 26.2565 92.6825 26.436C92.3778 26.6043 92.1331 26.8575 91.9806 27.1623C91.8198 27.4904 91.7404 27.85 91.7486 28.2127C91.7209 28.7542 91.9122 29.2849 92.2823 29.6933C92.4729 29.8814 92.7028 30.0285 92.9568 30.1248C93.2107 30.2211 93.483 30.2645 93.7556 30.2521C94.0256 30.2639 94.2951 30.2201 94.5461 30.1238C94.7972 30.0275 95.024 29.8807 95.2116 29.6933C95.5589 29.2745 95.7481 28.7544 95.7481 28.2183C95.7481 27.6822 95.5589 27.1621 95.2116 26.7433C95.0262 26.5524 94.8 26.4026 94.5486 26.3042C94.2973 26.2058 94.0267 26.1611 93.7556 26.1734ZM94.9158 28.2127C94.9372 28.5713 94.8307 28.9261 94.6141 29.2184C94.5095 29.3372 94.3772 29.4305 94.228 29.4907C94.0788 29.5509 93.9169 29.5763 93.7556 29.5648C93.5927 29.5759 93.4293 29.5503 93.2783 29.4902C93.1273 29.4301 92.9929 29.3371 92.8855 29.2184C92.6651 28.9276 92.5565 28.5721 92.5781 28.2127C92.5589 27.8562 92.6697 27.5044 92.8913 27.2182C92.9975 27.0975 93.1314 27.0023 93.2825 26.9403C93.4335 26.8782 93.5975 26.8509 93.7614 26.8606C93.9215 26.8502 94.0818 26.8767 94.2291 26.938C94.3763 26.9992 94.5064 27.0933 94.6083 27.2126C94.8237 27.5034 94.93 27.856 94.91 28.2127H94.9158Z" fill="#898989"/>
<path d="M100.519 28.6707H101.488V29.4752C101.264 29.5383 101.031 29.5684 100.798 29.5646C100.621 29.5775 100.445 29.5532 100.279 29.4933C100.114 29.4335 99.9642 29.3396 99.8405 29.2182C99.6084 28.9495 99.4903 28.6063 99.5098 28.2573C99.5064 28.0059 99.564 27.7572 99.6781 27.531C99.7759 27.3264 99.9356 27.155 100.136 27.0393C100.346 26.9183 100.588 26.8564 100.832 26.8606C101.175 26.8542 101.511 26.9498 101.795 27.1343L101.923 27.2181L102.265 26.6594L102.167 26.5868C101.774 26.3176 101.302 26.1784 100.821 26.1901C100.434 26.1839 100.054 26.2785 99.7187 26.4639C99.3985 26.6418 99.1371 26.9033 98.9646 27.2181C98.785 27.5508 98.6953 27.9216 98.7036 28.2964C98.6949 28.6519 98.7744 29.0044 98.9356 29.3244C99.0953 29.6227 99.3464 29.8665 99.6549 30.0227C100.001 30.1937 100.386 30.2782 100.774 30.2685C101.261 30.2738 101.744 30.1786 102.19 29.9892L102.277 29.9501V27.9835H100.537L100.519 28.6707Z" fill="#898989"/>
<path d="M106.465 26.2402H105.676V30.196H106.465V26.2402Z" fill="#898989"/>
<path d="M110.693 28.4919H112.381V27.8047H110.693V26.9275H112.48V26.2402H109.905V30.196H112.555V29.5088H110.693V28.4919Z" fill="#898989"/>
<path d="M118.333 28.654C118.291 28.5237 118.217 28.4049 118.118 28.3076C118.009 28.1932 117.877 28.1019 117.73 28.0394C117.543 27.9522 117.349 27.8811 117.15 27.8271L117.028 27.7936H116.935C116.805 27.7548 116.678 27.7043 116.558 27.6428C116.503 27.6156 116.459 27.5726 116.43 27.5199C116.4 27.4471 116.386 27.369 116.39 27.2908C116.385 27.2329 116.397 27.175 116.423 27.1229C116.45 27.0708 116.49 27.0265 116.541 26.9947C116.693 26.9139 116.866 26.8753 117.039 26.8829C117.194 26.8787 117.348 26.9054 117.492 26.9612C117.608 27.0012 117.715 27.064 117.805 27.1455L117.927 27.2573L118.35 26.6986L118.263 26.6148C118.091 26.4657 117.889 26.3513 117.67 26.2784C117.451 26.2055 117.219 26.1755 116.987 26.1901C116.748 26.1862 116.509 26.226 116.285 26.3075C116.079 26.381 115.899 26.5111 115.769 26.6818C115.637 26.8631 115.568 27.0803 115.572 27.302C115.563 27.4424 115.584 27.5831 115.635 27.7149C115.686 27.8467 115.765 27.9668 115.868 28.0674C116.113 28.2709 116.405 28.4146 116.72 28.4864L116.848 28.5199L116.958 28.5535C117.078 28.5879 117.197 28.6289 117.312 28.6764C117.376 28.7088 117.437 28.7482 117.492 28.7937C117.525 28.8273 117.551 28.8673 117.567 28.911C117.575 28.9704 117.575 29.0304 117.567 29.0898C117.568 29.1505 117.558 29.2109 117.538 29.2686C117.528 29.317 117.504 29.3616 117.469 29.3971C117.438 29.4373 117.399 29.4699 117.353 29.4921C117.296 29.522 117.236 29.5446 117.173 29.5591C116.913 29.604 116.646 29.5768 116.401 29.4809C116.257 29.4221 116.121 29.3471 115.995 29.2574L115.868 29.1568L115.496 29.7155L115.583 29.7938C115.742 29.9251 115.922 30.029 116.117 30.1011C116.379 30.2 116.659 30.2493 116.941 30.2463C117.123 30.2479 117.304 30.2253 117.48 30.1793C117.643 30.1344 117.798 30.0646 117.938 29.9726C118.074 29.8723 118.185 29.7445 118.263 29.5982C118.342 29.4357 118.382 29.2581 118.379 29.0786C118.386 28.9357 118.37 28.7925 118.333 28.654Z" fill="#898989"/>
<path d="M55.6861 18.7425C54.8926 19.3839 53.8912 19.7377 52.8554 19.7426C52.4148 19.7579 51.9761 19.6809 51.5695 19.5169C51.1629 19.3529 50.7981 19.1059 50.5003 18.7928C49.8449 18.0793 49.5074 17.1461 49.5606 16.1948C49.551 15.6739 49.6374 15.1556 49.8158 14.6639C49.9675 14.2488 50.2064 13.8684 50.5177 13.5464C50.8116 13.2516 51.1649 13.0178 51.556 12.8592C51.9244 12.7152 52.3187 12.6431 52.7162 12.6469C53.6382 12.6432 54.5385 12.9166 55.2916 13.4291L55.6223 13.6526L56.7766 11.7194L56.5272 11.535C55.4035 10.7032 54.0168 10.2692 52.6001 10.3059C52.0334 10.3068 51.4695 10.382 50.9238 10.5293C50.3639 10.689 49.8335 10.9322 49.3518 11.2501C48.8595 11.5734 48.4213 11.9671 48.0525 12.4178C47.652 12.92 47.3494 13.4879 47.1592 14.094C46.9337 14.7786 46.8221 15.4933 46.8285 16.2115C46.8189 17.0673 46.9865 17.9164 47.3216 18.709C47.6164 19.416 48.07 20.0514 48.6499 20.5695C49.2014 21.0508 49.8405 21.4297 50.5351 21.687C51.243 21.9452 51.9941 22.0758 52.751 22.0725C54.2169 22.102 55.6493 21.6486 56.8114 20.7874L57.0318 20.6198L56.0863 18.4632L55.6861 18.7425Z" fill="#898989"/>
<path d="M66.8929 16.4634C67.3485 16.2829 67.748 15.9923 68.053 15.6197C68.4692 15.102 68.6919 14.4642 68.6853 13.8095C68.7009 13.2601 68.5962 12.7137 68.3779 12.206C68.1793 11.7645 67.8453 11.3921 67.4208 11.1388C67.0109 10.9009 66.5615 10.7327 66.0924 10.6415C65.5474 10.5434 64.9937 10.4966 64.4392 10.5019H60.0714V21.8941H62.7454V17.3741H63.9056C64.2121 17.3522 64.5181 17.4225 64.7815 17.5752C65.0541 17.827 65.254 18.1428 65.3615 18.4915L66.7247 21.8941H69.625L67.9196 17.8825C67.6984 17.3381 67.3466 16.8518 66.8929 16.4634ZM62.7222 12.8094H64.4102C64.8314 12.7695 65.2554 12.8512 65.6284 13.044C65.8604 13.2005 65.9068 13.6028 65.9068 13.8933C65.9068 14.452 65.7154 15.0889 64.2014 15.0889H62.7222V12.8094Z" fill="#898989"/>
<path d="M77.6589 10.3062C76.8534 10.2677 76.0484 10.3914 75.2953 10.6694C74.5422 10.9474 73.8576 11.3736 73.2852 11.9208C72.7405 12.4886 72.3181 13.1547 72.0423 13.8806C71.7665 14.6065 71.6428 15.3779 71.6784 16.1502C71.6394 16.9372 71.7622 17.724 72.04 18.4652C72.3177 19.2063 72.7449 19.8873 73.2968 20.4689C73.8699 21.0107 74.5535 21.4319 75.3043 21.706C76.0552 21.9801 76.857 22.1011 77.6589 22.0612C78.4549 22.1028 79.2511 21.9825 79.9956 21.7082C80.7402 21.4339 81.4164 21.0116 81.9804 20.4689C83.0633 19.2878 83.6252 17.7464 83.5465 16.1725C83.6202 14.6138 83.0486 13.0907 81.9572 11.9376C81.3998 11.3902 80.729 10.962 79.9885 10.6809C79.2479 10.3998 78.4541 10.2721 77.6589 10.3062ZM77.6589 12.608C78.0838 12.5784 78.51 12.6436 78.9044 12.7987C79.2988 12.9537 79.6507 13.1944 79.9327 13.5019C80.5096 14.2687 80.7907 15.2052 80.7274 16.1502C80.7952 17.1155 80.5122 18.0735 79.9269 18.8599C79.3133 19.4386 78.4887 19.7627 77.6299 19.7627C76.7711 19.7627 75.9465 19.4386 75.3328 18.8599C74.7505 18.0702 74.4697 17.1109 74.5381 16.1446C74.4694 15.2 74.7533 14.2628 75.3386 13.5019C75.6286 13.1919 75.9885 12.95 76.3908 12.795C76.7931 12.64 77.2269 12.5761 77.6589 12.608Z" fill="#898989"/>
<path d="M94.997 12.0551C94.8614 11.8336 94.6956 11.6306 94.5039 11.4517C94.3007 11.2607 94.0628 11.1073 93.8021 10.9991C93.5601 10.8978 93.3121 10.8101 93.0596 10.7365C92.7705 10.6628 92.4756 10.6123 92.1779 10.5857C91.8472 10.5522 91.5456 10.5298 91.2672 10.5186C90.9888 10.5075 90.6871 10.5186 90.2927 10.5186H86.7601V21.8939H89.4284V17.2846H90.7567C91.389 17.2934 92.0206 17.241 92.6419 17.1281C93.1603 17.0289 93.6557 16.8395 94.1037 16.5694C94.5443 16.3117 94.894 15.932 95.1072 15.48C95.3307 14.9753 95.4395 14.4305 95.4262 13.8821C95.4289 13.5426 95.3958 13.2038 95.3276 12.8708C95.2648 12.5832 95.153 12.3076 94.997 12.0551ZM92.6767 13.9156C92.6845 14.108 92.6447 14.2995 92.5607 14.4743C92.4882 14.6013 92.374 14.7016 92.2359 14.7592C92.0524 14.8451 91.857 14.9053 91.6558 14.938C91.3621 14.9799 91.0653 14.9986 90.7683 14.9939H89.4748V12.8317H90.9249H91.3716C91.4978 12.836 91.6237 12.8472 91.7486 12.8652L92.0967 12.9378C92.1625 12.945 92.2258 12.966 92.2823 12.9993C92.3553 13.0471 92.425 13.0994 92.4911 13.1557C92.5308 13.189 92.5642 13.2287 92.5897 13.2731C92.6225 13.3626 92.6497 13.4541 92.6709 13.5468C92.6809 13.6698 92.677 13.7934 92.6593 13.9156H92.6767Z" fill="#898989"/>
<path d="M100.96 12.8758C101.365 12.6898 101.811 12.6015 102.259 12.6188C103.106 12.5748 103.937 12.847 104.58 13.3787L104.875 13.6524L106.314 11.859L106.076 11.6355C105.596 11.1822 105.023 10.8302 104.394 10.602C103.606 10.3763 102.785 10.2763 101.964 10.3058C101.253 10.2935 100.547 10.4091 99.8811 10.6466C99.2679 10.8664 98.7354 11.255 98.3497 11.764C97.9558 12.2921 97.752 12.9298 97.7697 13.5798C97.7311 14.3313 97.9832 15.0698 98.4774 15.6526C99.0748 16.2373 99.8086 16.6759 100.618 16.932C100.786 16.9879 101.053 17.0772 101.424 17.189L102.184 17.4292C102.458 17.519 102.726 17.6273 102.984 17.7533C103.123 17.82 103.246 17.9109 103.35 18.0214C103.41 18.0927 103.455 18.1742 103.483 18.2617C103.511 18.3902 103.523 18.5215 103.518 18.6528C103.534 18.8083 103.511 18.9653 103.45 19.1103C103.39 19.2552 103.294 19.3839 103.17 19.4852C102.741 19.8093 101.819 19.9545 100.473 19.5187C100.007 19.3813 99.5674 19.1698 99.1734 18.893L98.8486 18.6472L97.6885 20.5691L97.8973 20.7591C98.4134 21.2107 99.0308 21.5414 99.7013 21.7256C100.453 21.9502 101.235 22.0632 102.022 22.0608C102.549 22.0663 103.076 22.0063 103.588 21.882C104.068 21.7667 104.526 21.5781 104.945 21.3233C105.379 21.0558 105.732 20.6817 105.966 20.2395C106.218 19.7525 106.344 19.2137 106.331 18.6695C106.38 17.9308 106.176 17.197 105.751 16.58C105.202 15.9721 104.493 15.5184 103.698 15.2671C103.495 15.1944 103.187 15.0883 102.776 14.9654L101.993 14.714C101.715 14.6239 101.443 14.5156 101.18 14.3899C101.039 14.3235 100.909 14.2348 100.798 14.1273C100.732 14.0585 100.682 13.9765 100.653 13.8871C100.624 13.7549 100.61 13.6199 100.612 13.4848C100.602 13.3617 100.629 13.2383 100.691 13.13C100.753 13.0218 100.847 12.9334 100.96 12.8758Z" fill="#898989"/>
<path d="M115.879 10.5073L113.373 15.0106L110.839 10.5073H107.782L112.01 17.5081V21.894H114.679V17.5025L119 10.5073H115.879Z" fill="#898989"/>
<defs>
<linearGradient id="paint0_linear_41_18" x1="12.9992" y1="19.6532" x2="26.271" y2="19.6532" gradientUnits="userSpaceOnUse">
<stop stop-color="#27733A"/>
<stop offset="0.14" stop-color="#27733A"/>
<stop offset="1" stop-color="#27733A"/>
</linearGradient>
</defs>
</svg>
